<?xml version="1.0" encoding="utf-8"?>
<!-- Generator: Adobe Illustrator 23.0.3, SVG Export Plug-In . SVG Version: 6.00 Build 0)  -->
<svg version="1.1" id="Layer_1" xmlns="http://www.w3.org/2000/svg" xmlns:xlink="http://www.w3.org/1999/xlink" x="0px" y="0px"
	 viewBox="0 0 531 552" style="enable-background:new 0 0 531 552;" xml:space="preserve">
<style type="text/css">
	.st0{fill-rule:evenodd;clip-rule:evenodd;fill:#FFFFFF;}
	.st1{fill:#FFFFFF;}
</style>
<path class="st0" d="M152.6,383.4c-9,0-16.3,7.3-16.3,16.3c0,7.2,4.7,13.3,11.1,15.5c0.8,0.1,1.1-0.4,1.1-0.8c0-0.4,0-1.4,0-2.8
	c-4.5,1-5.5-2.2-5.5-2.2c-0.7-1.9-1.8-2.4-1.8-2.4c-1.5-1,0.1-1,0.1-1c1.6,0.1,2.5,1.7,2.5,1.7c1.5,2.5,3.8,1.8,4.7,1.4
	c0.1-1.1,0.6-1.8,1-2.2c-3.6-0.4-7.4-1.8-7.4-8.1c0-1.8,0.6-3.2,1.7-4.4c-0.2-0.4-0.7-2.1,0.2-4.3c0,0,1.4-0.4,4.5,1.7
	c1.3-0.4,2.7-0.5,4.1-0.5c1.4,0,2.8,0.2,4.1,0.5c3.1-2.1,4.5-1.7,4.5-1.7c0.9,2.2,0.3,3.9,0.2,4.3c1,1.1,1.7,2.6,1.7,4.4
	c0,6.3-3.8,7.6-7.4,8c0.6,0.5,1.1,1.5,1.1,3c0,2.2,0,3.9,0,4.5c0,0.4,0.3,0.9,1.1,0.8c6.5-2.2,11.1-8.3,11.1-15.5
	C168.9,390.7,161.6,383.4,152.6,383.4z"/>
<g>
	<path class="st0" d="M265.5,28.7C122.2,28.7,5.9,144.9,5.9,288.2c0,114.7,74.4,212,177.5,246.3c13,2.4,17.7-5.6,17.7-12.5
		c0-6.2-0.2-26.6-0.4-48.3c-72.2,15.7-87.4-30.6-87.4-30.6c-11.8-30-28.8-38-28.8-38c-23.6-16.1,1.8-15.8,1.8-15.8
		c26.1,1.8,39.8,26.7,39.8,26.7c23.1,39.7,60.7,28.2,75.5,21.6c2.3-16.8,9.1-28.2,16.5-34.7c-57.6-6.6-118.2-28.8-118.2-128.3
		c0-28.3,10.1-51.5,26.7-69.7c-2.7-6.5-11.6-32.9,2.5-68.7c0,0,21.8-7,71.4,26.6c20.7-5.8,42.9-8.6,65-8.7c22.1,0.1,44.3,3,65,8.7
		c49.5-33.6,71.3-26.6,71.3-26.6c14.1,35.8,5.2,62.1,2.5,68.7c16.6,18.2,26.7,41.3,26.7,69.7c0,99.7-60.7,121.6-118.5,128.1
		c9.3,8.1,17.6,23.8,17.6,48.1c0,34.7-0.3,62.7-0.3,71.2c0,6.9,4.7,15,17.8,12.5C450.8,500.1,525,402.8,525,288.2
		C525,144.9,408.8,28.7,265.5,28.7z"/>
	<path class="st1" d="M104.2,401.3c-0.6,1.3-2.6,1.7-4.4,0.8c-1.9-0.8-2.9-2.6-2.3-3.9c0.6-1.3,2.6-1.7,4.5-0.8
		C103.8,398.2,104.9,400,104.2,401.3L104.2,401.3z M101.1,398.9"/>
	<path class="st1" d="M114.8,413c-1.2,1.1-3.7,0.6-5.3-1.2c-1.7-1.8-2-4.2-0.8-5.4c1.3-1.1,3.6-0.6,5.3,1.2
		C115.7,409.5,116.1,411.9,114.8,413L114.8,413z M112.3,410.4"/>
	<path class="st1" d="M125,428c-1.6,1.1-4.2,0.1-5.8-2.2c-1.6-2.3-1.6-5.1,0-6.2c1.6-1.1,4.2-0.1,5.8,2.2
		C126.6,424.1,126.6,426.8,125,428L125,428z M125,428"/>
	<path class="st1" d="M139,442.4c-1.4,1.6-4.5,1.1-6.7-1c-2.3-2.1-2.9-5.1-1.5-6.6c1.4-1.6,4.5-1.1,6.7,1
		C139.8,437.9,140.5,440.9,139,442.4L139,442.4z M139,442.4"/>
	<path class="st1" d="M158.4,450.8c-0.6,2-3.5,3-6.5,2.1c-2.9-0.9-4.9-3.3-4.3-5.3c0.6-2,3.5-3,6.5-2.1
		C157,446.4,159,448.7,158.4,450.8L158.4,450.8z M158.4,450.8"/>
	<path class="st1" d="M179.6,452.4c0.1,2.1-2.4,3.9-5.5,4c-3.1,0.1-5.6-1.7-5.6-3.8c0-2.2,2.4-3.9,5.5-4
		C177.1,448.5,179.6,450.2,179.6,452.4L179.6,452.4z M179.6,452.4"/>
	<path class="st1" d="M199.4,449c0.4,2.1-1.8,4.2-4.8,4.8c-3,0.6-5.8-0.7-6.2-2.8c-0.4-2.1,1.8-4.3,4.8-4.8
		C196.2,445.6,199,446.9,199.4,449L199.4,449z M199.4,449"/>
</g>
</svg>
